HIERARCHY
ROOT Pelvis
{
	OFFSET 0.000000 0.000000 0.743317
	CHANNELS 6 Xposition Yposition Zposition Xrotation Yrotation Zrotation
	JOINT Spine
	{
		OFFSET 0.000000 0.001352 0.099858
		CHANNELS 6 Xposition Yposition Zposition Xrotation Yrotation Zrotation
		JOINT Spine1
		{
			OFFSET 0.000000 0.005761 0.127053
			CHANNELS 6 Xposition Yposition Zposition Xrotation Yrotation Zrotation
			JOINT Spine2
			{
				OFFSET 0.000000 0.009235 0.126854
				CHANNELS 3 Xrotation Yrotation Zrotation
				JOINT Neck
				{
					OFFSET 0.000000 -0.006235 0.165749
					CHANNELS 6 Xposition Yposition Zposition Xrotation Yrotation Zrotation
					JOINT Head
					{
						OFFSET 0.000000 -0.016874 0.054983
						CHANNELS 3 Xrotation Yrotation Zrotation
						JOINT MJaw
						{
							OFFSET 0.000000 -0.014308 0.025444
							CHANNELS 6 Xposition Yposition Zposition Xrotation Yrotation Zrotation
							End Site
							{
								OFFSET 0.000253 -0.081293 -0.007859
							}
						}
						JOINT LEye
						{
							OFFSET 0.026476 -0.071302 0.082186
							CHANNELS 3 Xrotation Yrotation Zrotation
							End Site
							{
								OFFSET -0.000002 0.000001 -0.110634
							}
						}
						JOINT REye
						{
							OFFSET -0.026476 -0.071302 0.082186
							CHANNELS 3 Xrotation Yrotation Zrotation
							End Site
							{
								OFFSET 0.000002 0.000001 -0.110633
							}
						}
						End Site
						{
							OFFSET 0.000000 -0.004522 0.086285
						}
					}
				}
				JOINT R Clavicle
				{
					OFFSET -0.060467 0.003259 0.114754
					CHANNELS 6 Xposition Yposition Zposition Xrotation Yrotation Zrotation
					JOINT R UpperArm
					{
						OFFSET -0.114214 0.001474 -0.026001
						CHANNELS 6 Xposition Yposition Zposition Xrotation Yrotation Zrotation
						JOINT R Forearm
						{
							OFFSET -0.170868 -0.005129 -0.164611
							CHANNELS 6 Xposition Yposition Zposition Xrotation Yrotation Zrotation
							JOINT R Hand
							{
								OFFSET -0.142402 -0.083119 -0.153032
								CHANNELS 6 Xposition Yposition Zposition Xrotation Yrotation Zrotation
								JOINT R Finger1
								{
									OFFSET -0.041891 -0.043380 -0.053439
									CHANNELS 3 Xrotation Yrotation Zrotation
									JOINT R Finger11
									{
										OFFSET -0.010989 -0.007736 -0.022236
										CHANNELS 3 Xrotation Yrotation Zrotation
										JOINT R Finger12
										{
											OFFSET -0.005103 -0.004998 -0.018418
											CHANNELS 3 Xrotation Yrotation Zrotation
											End Site
											{
												OFFSET -0.004341 -0.004773 -0.018671
											}
										}
									}
								}
								JOINT R Finger2
								{
									OFFSET -0.048821 -0.025187 -0.057328
									CHANNELS 3 Xrotation Yrotation Zrotation
									JOINT R Finger21
									{
										OFFSET -0.011398 -0.008125 -0.028292
										CHANNELS 3 Xrotation Yrotation Zrotation
										JOINT R Finger22
										{
											OFFSET -0.005540 -0.006152 -0.022159
											CHANNELS 3 Xrotation Yrotation Zrotation
											End Site
											{
												OFFSET -0.001314 -0.006063 -0.022827
											}
										}
									}
								}
								JOINT R Finger3
								{
									OFFSET -0.049318 -0.006435 -0.058925
									CHANNELS 3 Xrotation Yrotation Zrotation
									JOINT R Finger31
									{
										OFFSET -0.007909 -0.007533 -0.025759
										CHANNELS 3 Xrotation Yrotation Zrotation
										JOINT R Finger32
										{
											OFFSET -0.003783 -0.005495 -0.019168
											CHANNELS 3 Xrotation Yrotation Zrotation
											End Site
											{
												OFFSET -0.002779 -0.005491 -0.019340
											}
										}
									}
								}
								JOINT R Finger4
								{
									OFFSET -0.043087 0.010357 -0.060532
									CHANNELS 3 Xrotation Yrotation Zrotation
									JOINT R Finger41
									{
										OFFSET -0.002748 -0.005802 -0.023285
										CHANNELS 3 Xrotation Yrotation Zrotation
										JOINT R Finger42
										{
											OFFSET -0.000910 -0.003140 -0.012326
											CHANNELS 3 Xrotation Yrotation Zrotation
											End Site
											{
												OFFSET -0.000279 -0.003221 -0.012336
											}
										}
									}
								}
								JOINT R Finger0
								{
									OFFSET -0.000780 -0.031320 -0.015642
									CHANNELS 3 Xrotation Yrotation Zrotation
									JOINT R Finger01
									{
										OFFSET 0.001349 -0.015704 -0.017404
										CHANNELS 3 Xrotation Yrotation Zrotation
										JOINT R Finger02
										{
											OFFSET -0.001327 -0.013136 -0.022101
											CHANNELS 3 Xrotation Yrotation Zrotation
											End Site
											{
												OFFSET -0.003927 -0.008645 -0.023930
											}
										}
									}
								}
							}
						}
					}
				}
				JOINT L Clavicle
				{
					OFFSET 0.060467 0.003259 0.114754
					CHANNELS 6 Xposition Yposition Zposition Xrotation Yrotation Zrotation
					JOINT L UpperArm
					{
						OFFSET 0.114214 0.001474 -0.026001
						CHANNELS 6 Xposition Yposition Zposition Xrotation Yrotation Zrotation
						JOINT L Forearm
						{
							OFFSET 0.170868 -0.005128 -0.164611
							CHANNELS 6 Xposition Yposition Zposition Xrotation Yrotation Zrotation
							JOINT L Hand
							{
								OFFSET 0.142402 -0.083118 -0.153033
								CHANNELS 6 Xposition Yposition Zposition Xrotation Yrotation Zrotation
								JOINT L Finger1
								{
									OFFSET 0.041891 -0.043380 -0.053438
									CHANNELS 3 Xrotation Yrotation Zrotation
									JOINT L Finger11
									{
										OFFSET 0.010988 -0.007736 -0.022236
										CHANNELS 3 Xrotation Yrotation Zrotation
										JOINT L Finger12
										{
											OFFSET 0.005103 -0.004998 -0.018418
											CHANNELS 3 Xrotation Yrotation Zrotation
											End Site
											{
												OFFSET 0.004341 -0.004773 -0.018671
											}
										}
									}
								}
								JOINT L Finger2
								{
									OFFSET 0.048821 -0.025187 -0.057327
									CHANNELS 3 Xrotation Yrotation Zrotation
									JOINT L Finger21
									{
										OFFSET 0.011399 -0.008124 -0.028292
										CHANNELS 3 Xrotation Yrotation Zrotation
										JOINT L Finger22
										{
											OFFSET 0.005541 -0.006152 -0.022159
											CHANNELS 3 Xrotation Yrotation Zrotation
											End Site
											{
												OFFSET 0.001314 -0.006063 -0.022827
											}
										}
									}
								}
								JOINT L Finger3
								{
									OFFSET 0.049319 -0.006435 -0.058924
									CHANNELS 3 Xrotation Yrotation Zrotation
									JOINT L Finger31
									{
										OFFSET 0.007909 -0.007533 -0.025759
										CHANNELS 3 Xrotation Yrotation Zrotation
										JOINT L Finger32
										{
											OFFSET 0.003782 -0.005495 -0.019167
											CHANNELS 3 Xrotation Yrotation Zrotation
											End Site
											{
												OFFSET 0.002779 -0.005491 -0.019340
											}
										}
									}
								}
								JOINT L Finger4
								{
									OFFSET 0.043087 0.010356 -0.060532
									CHANNELS 3 Xrotation Yrotation Zrotation
									JOINT L Finger41
									{
										OFFSET 0.002747 -0.005802 -0.023285
										CHANNELS 3 Xrotation Yrotation Zrotation
										JOINT L Finger42
										{
											OFFSET 0.000910 -0.003139 -0.012326
											CHANNELS 3 Xrotation Yrotation Zrotation
											End Site
											{
												OFFSET 0.000279 -0.003221 -0.012336
											}
										}
									}
								}
								JOINT L Finger0
								{
									OFFSET 0.000780 -0.031320 -0.015642
									CHANNELS 3 Xrotation Yrotation Zrotation
									JOINT L Finger01
									{
										OFFSET -0.001348 -0.015704 -0.017404
										CHANNELS 3 Xrotation Yrotation Zrotation
										JOINT L Finger02
										{
											OFFSET 0.001327 -0.013135 -0.022101
											CHANNELS 3 Xrotation Yrotation Zrotation
											End Site
											{
												OFFSET 0.003927 -0.008645 -0.023929
											}
										}
									}
								}
							}
						}
					}
				}
			}
		}
	}
	JOINT R Thigh
	{
		OFFSET -0.073377 0.000000 0.000000
		CHANNELS 6 Xposition Yposition Zposition Xrotation Yrotation Zrotation
		JOINT R Calf
		{
			OFFSET -0.017406 -0.013523 -0.330605
			CHANNELS 6 Xposition Yposition Zposition Xrotation Yrotation Zrotation
			JOINT R Foot
			{
				OFFSET -0.006092 0.025610 -0.328337
				CHANNELS 3 Xrotation Yrotation Zrotation
				JOINT R Toe0
				{
					OFFSET -0.028338 -0.111085 -0.082375
					CHANNELS 6 Xposition Yposition Zposition Xrotation Yrotation Zrotation
					End Site
					{
						OFFSET 0.000495 0.002442 0.141147
					}
				}
			}
		}
	}
	JOINT L Thigh
	{
		OFFSET 0.073377 0.000000 0.000000
		CHANNELS 6 Xposition Yposition Zposition Xrotation Yrotation Zrotation
		JOINT L Calf
		{
			OFFSET 0.017901 -0.013562 -0.330577
			CHANNELS 6 Xposition Yposition Zposition Xrotation Yrotation Zrotation
			JOINT L Foot
			{
				OFFSET 0.006585 0.025573 -0.328331
				CHANNELS 3 Xrotation Yrotation Zrotation
				JOINT L Toe0
				{
					OFFSET 0.028459 -0.111097 -0.082320
					CHANNELS 6 Xposition Yposition Zposition Xrotation Yrotation Zrotation
					End Site
					{
						OFFSET -0.000706 0.002458 0.141146
					}
				}
			}
		}
	}
}
MOTION
Frames: 6
Frame Time:	0.016667
-0.5059 0.1173 0.6704 -0.4566 -0.0676 150.1054 0 0.001 0.1 1.202 0.7796 0.4473 0 0.0046 0.128 3.4414 0.9749 0.4631 0 0 0 0 -0.0048 0.1647 17.9104 6.5022 1.2825 -0.6053 5.2833 1.1142 0 -0.0143 0.0255 -0.0326 0 -0.0004 -0.1401 0.0014 -2.8898 -0.1406 0.001 -2.4545 -0.0605 0.0047 0.1164 -3.1143 -5.2859 7.3151 -0.1142 0.0015 -0.026 -47.1696 6.8789 60.6458 -0.1715 -0.0051 -0.1652 3.8502 -0.4921 -24.3582 -0.143 -0.0834 -0.1536 -31.1555 3.3877 -9.9834 19.2346 -45.2756 26.8479 24.6479 -50.4215 24.0947 19.0056 -44.4763 17.8426 9.8053 -29.8113 12.2006 5.3678 -17.7292 4.2224 1.9753 -3.9538 0.4441 13.3254 -7.4167 -0.9828 5.7328 -19.282 4.677 3.8635 -14.1464 2.9799 18.7872 5.4623 -6.8259 5.1767 -17.8828 4.151 -1.2012 6.3731 -2.353 -31.5858 2.0116 -9.5405 -2.3137 -1.8179 -3.941 -18.2788 -10.7449 0.7455 0.0605 0.0047 0.117 -4.5948 6.8505 -10.5039 0.1142 0.0015 -0.026 1.6336 28.0212 -21.2794 0.1709 -0.0051 -0.1646 -49.5095 33.7062 -63.3043 0.1424 -0.0831 -0.153 12.8316 -20.4256 35.5851 5.4118 22.5482 -10.8136 4.9856 19.4468 -5.1972 5.5884 19.5171 -4.9811 6.8587 10.2503 -4.3775 2.9655 9.7906 -1.9174 -0.1062 -5.0508 1.6406 14.1079 -0.5422 3.7702 2.7853 9.9857 -1.7113 2.191 8.4347 -1.311 20.8079 -9.109 8.3193 3.7225 13.3855 -2.7178 -1.228 -6.4477 2.3277 -15.878 -10.0721 17.7656 -2.6137 1.9825 3.8333 -10.4833 5.8527 1.3008 -0.0734 0 0.0001 -24.6753 -4.8616 -0.8669 -0.0174 -0.0135 -0.3306 47.5276 -2.1479 -0.1527 -23.3045 6.436 -2.5616 -0.0283 -0.1111 -0.0824 -0.0001 -0.0003 0.0001 0.0734 0 0.0001 -17.642 0.2596 3.7633 0.0179 -0.0136 -0.3306 46.3594 3.7549 -0.3214 -29.2277 -5.0203 3.3802 0.0285 -0.1111 -0.0823 0.0004 -0.0008 0.0002 
-0.5057 0.1171 0.6707 -0.46 -0.0626 150.0949 0 0.0011 0.1 1.2163 0.7718 0.4191 0 0.0046 0.128 3.456 0.9613 0.4319 0 0 0 0 -0.0048 0.1648 17.9691 6.5601 1.4853 -0.5445 5.3993 1.3267 0 -0.0143 0.0255 -0.0326 0 -0.0004 -1.0386 0.0205 -2.7677 -1.0444 0.0169 -2.34 -0.0605 0.0047 0.1164 -3.1325 -5.2875 7.3612 -0.1142 0.0015 -0.026 -47.1606 6.8268 60.6578 -0.1715 -0.0051 -0.1653 3.8312 -0.466 -24.3261 -0.143 -0.0834 -0.1536 -31.0585 3.3719 -9.9733 19.2361 -45.2765 26.8491 24.6506 -50.4237 24.0974 19.0064 -44.4773 17.8434 9.8048 -29.8133 12.2014 5.3695 -17.7343 4.2241 1.9774 -3.9619 0.4462 13.3216 -7.421 -0.981 5.7348 -19.2877 4.6791 3.8653 -14.1523 2.9818 18.7793 5.4589 -6.8238 5.1781 -17.887 4.1525 -1.1992 6.3631 -2.3509 -31.5455 1.7493 -9.3251 -2.8869 -2.1271 -3.7215 -21.3163 -12.7263 1.3637 0.0605 0.0047 0.117 -4.6267 6.8622 -10.5819 0.1142 0.0015 -0.026 1.4801 27.9368 -21.4023 0.1709 -0.0051 -0.1646 -49.6656 33.6263 -63.2855 0.1424 -0.0831 -0.153 12.9079 -20.4492 35.4593 2.7365 15.0572 -7.5394 1.7713 9.3258 -2.2735 3.0092 11.4712 -2.6047 6.5834 4.1345 -2.2383 2.2978 7.3213 -1.2754 -0.6877 -7.8445 2.2324 14.4382 -2.9954 4.6623 1.9873 7.0855 -0.8989 1.7128 6.6633 -0.8248 21.4496 -10.2164 8.8139 3.3033 11.9938 -2.2928 -1.2296 -6.4555 2.3294 -15.878 -10.0721 17.7656 -2.6137 1.9825 3.8333 -10.4833 5.8527 1.3008 -0.0734 0 0.0001 -24.6363 -4.8899 -0.866 -0.0174 -0.0135 -0.3306 47.4356 -2.1398 -0.1556 -23.2567 6.4572 -2.562 -0.0283 -0.1111 -0.0824 -0.0001 -0.0002 0.0001 0.0734 0 0.0001 -17.6062 0.2418 3.77 0.0179 -0.0136 -0.3306 46.2728 3.7415 -0.3156 -29.1806 -4.9868 3.3825 0.0285 -0.1111 -0.0823 0.0005 -0.0008 0.0002 
-0.5046 0.1169 0.6711 -0.465 -0.0634 150.0935 0 0.0011 0.1 1.2256 0.7794 0.4153 0 0.0046 0.128 3.4606 0.9613 0.4277 0 0 0 0 -0.0048 0.1648 18.0368 6.6453 1.5694 -0.4652 5.619 1.4321 0 -0.0143 0.0255 -0.0326 0 -0.0004 -1.9819 0.0374 -2.4358 -2.0731 0.0331 -2.0883 -0.0605 0.0047 0.1164 -3.1479 -5.2999 7.397 -0.1142 0.0015 -0.026 -47.2296 6.7005 60.7622 -0.1715 -0.0051 -0.1652 3.9883 -0.6277 -24.493 -0.143 -0.0834 -0.1536 -31.1232 3.4859 -9.9384 19.2375 -45.2775 26.8503 24.6534 -50.426 24.1001 19.0072 -44.4782 17.8442 9.8043 -29.8153 12.2022 5.3711 -17.7392 4.2257 1.9794 -3.9701 0.4483 13.3178 -7.4251 -0.9793 5.7368 -19.2933 4.6811 3.8672 -14.1581 2.9837 18.7715 5.4555 -6.8218 5.1795 -17.8911 4.1539 -1.1971 6.3533 -2.3488 -31.5075 1.536 -9.1497 -3.3535 -2.3808 -3.5448 -23.7902 -14.3603 1.79 0.0605 0.0047 0.117 -4.6246 6.859 -10.5779 0.1142 0.0015 -0.026 1.386 27.8031 -21.376 0.1709 -0.0051 -0.1646 -49.8544 33.7304 -63.3391 0.1424 -0.0831 -0.153 12.7478 -20.2974 35.2954 0.1015 6.074 -4.2495 -1.3001 -2.7034 0.3951 0.4559 1.8958 -0.3223 6.6198 -3.0882 0.2589 1.545 4.3808 -0.5545 -1.3482 -11.1794 2.9059 14.9114 -5.895 5.7477 1.0982 3.6276 0.0083 1.1643 4.5468 -0.2667 22.2642 -11.52 9.425 2.8206 10.3336 -1.8031 -1.2384 -6.4983 2.3384 -15.878 -10.0721 17.7656 -2.6137 1.9825 3.8333 -10.4833 5.8527 1.3008 -0.0734 0 0.0001 -24.5108 -4.9904 -0.886 -0.0174 -0.0135 -0.3306 47.2355 -2.1408 -0.1554 -23.1877 6.5589 -2.5746 -0.0283 -0.1111 -0.0824 -0.0001 -0.0003 0.0001 0.0734 0 0.0001 -17.4978 0.1591 3.7721 0.0179 -0.0136 -0.3306 46.1001 3.6901 -0.2959 -29.1127 -4.8522 3.367 0.0285 -0.1111 -0.0823 0.0004 -0.0008 0.0002 
-0.5037 0.1179 0.6702 -0.4588 -0.0656 150.0981 0 0.0011 0.1 1.2214 0.7761 0.4275 0 0.0046 0.128 3.5201 0.9554 0.4404 0 0 0 0 -0.0048 0.1648 17.9971 6.5343 1.487 -0.6786 5.5872 1.3594 0 -0.0143 0.0255 -0.0327 0 -0.0004 -2.4708 0.0468 -2.2503 -2.6064 0.0424 -1.9346 -0.0605 0.0046 0.1165 -3.139 -5.2734 7.3825 -0.1142 0.0015 -0.026 -47.4092 6.8147 60.8977 -0.1715 -0.0051 -0.1652 4.0995 -0.7053 -24.5455 -0.1429 -0.0834 -0.1536 -31.1439 3.4048 -9.8681 19.2398 -45.2789 26.8522 24.6576 -50.4295 24.1042 19.0084 -44.4796 17.8453 9.8036 -29.8184 12.2034 5.3737 -17.7469 4.2282 1.9825 -3.9826 0.4514 13.3119 -7.4316 -0.9767 5.7399 -19.3019 4.6842 3.8699 -14.167 2.9865 18.7596 5.4504 -6.8187 5.1817 -17.8974 4.1561 -1.1941 6.3383 -2.3457 -31.4482 1.2416 -8.9069 -3.9988 -2.7348 -3.3034 -27.2212 -16.6452 2.2629 0.0605 0.0047 0.1171 -4.6558 6.8687 -10.655 0.1142 0.0015 -0.026 1.3965 28.0193 -21.3845 0.1709 -0.0051 -0.1646 -50.1175 34.0027 -63.5528 0.1424 -0.0831 -0.153 12.8675 -20.0174 35.6701 -0.5195 3.6969 -3.4681 -2.0157 -5.8714 0.9906 -0.1472 -0.6261 0.2026 6.6974 -4.9829 0.9212 1.3521 3.5993 -0.3702 -1.5189 -12.0704 3.0802 15.0552 -6.6607 6.0417 0.872 2.7078 0.2394 1.0216 3.9806 -0.1213 22.4975 -11.8644 9.5933 2.6949 9.8906 -1.6755 -1.244 -6.5256 2.3442 -15.878 -10.0721 17.7656 -2.6137 1.9825 3.8333 -10.4833 5.8527 1.3008 -0.0734 0 0.0001 -24.5435 -4.9992 -0.8904 -0.0174 -0.0135 -0.3306 47.5701 -2.1887 -0.1384 -23.4848 6.6147 -2.5687 -0.0283 -0.1111 -0.0824 -0.0001 -0.0002 0.0001 0.0734 0 0.0001 -17.5003 0.1145 3.7665 0.0179 -0.0136 -0.3306 46.3939 3.7118 -0.3071 -29.3942 -4.8241 3.3374 0.0285 -0.1111 -0.0823 0.0004 -0.0008 0.0002 
-0.504 0.1187 0.6692 -0.453 -0.0603 150.0945 0 0.0011 0.1 1.227 0.7565 0.4182 0 0.0046 0.128 3.5837 0.9351 0.4297 0 0 0 0 -0.0049 0.1648 18.0023 6.3471 1.4738 -0.8231 5.3977 1.3449 0 -0.0143 0.0255 -0.0326 0 -0.0004 -2.727 0.05 -2.1411 -2.8835 0.0454 -1.8399 -0.0605 0.0046 0.1165 -3.1306 -5.2341 7.3727 -0.1142 0.0015 -0.026 -47.4722 7.0085 60.8959 -0.1715 -0.0051 -0.1652 3.9779 -0.5548 -24.3742 -0.1429 -0.0834 -0.1536 -31.1153 3.2255 -9.801 19.2406 -45.2794 26.8529 24.6593 -50.4309 24.1058 19.0089 -44.4802 17.8458 9.8033 -29.8196 12.2039 5.3747 -17.7499 4.2292 1.9838 -3.9875 0.4527 13.3096 -7.4341 -0.9757 5.7411 -19.3054 4.6855 3.871 -14.1705 2.9876 18.7548 5.4484 -6.8175 5.1825 -17.8999 4.157 -1.1928 6.3323 -2.3444 -31.4247 1.1353 -8.8191 -4.2321 -2.8635 -3.217 -28.4661 -17.4767 2.3998 0.0605 0.0046 0.1171 -4.709 6.8892 -10.7856 0.1142 0.0015 -0.026 1.3375 28.142 -21.5129 0.1709 -0.0051 -0.1646 -50.2303 34.0602 -63.7531 0.1424 -0.0831 -0.153 13.3606 -19.9398 36.008 -0.9133 2.1363 -2.9724 -2.4686 -7.9489 1.3609 -0.5296 -2.2794 0.532 6.7645 -6.2236 1.3584 1.2265 3.0843 -0.2504 -1.6305 -12.6591 3.1941 15.1546 -7.1639 6.2369 0.7252 2.1015 0.3895 0.9281 3.6064 -0.0261 22.6562 -12.091 9.7059 2.6126 9.5981 -1.5918 -1.2487 -6.5487 2.349 -15.878 -10.0721 17.7656 -2.6137 1.9825 3.8333 -10.4833 5.8527 1.3008 -0.0734 0 0.0001 -24.6723 -4.9282 -0.8689 -0.0174 -0.0135 -0.3306 47.951 -2.2204 -0.127 -23.7335 6.575 -2.556 -0.0283 -0.1111 -0.0824 -0.0001 -0.0003 0.0001 0.0734 0 0.0001 -17.5927 0.1482 3.7536 0.0179 -0.0136 -0.3306 46.7233 3.7793 -0.335 -29.6319 -4.9169 3.3422 0.0285 -0.1111 -0.0823 0.0004 -0.0008 0.0002 
-0.5038 0.1186 0.6688 -0.4539 -0.0572 150.093 0 0.0011 0.1 1.2393 0.7501 0.4139 0 0.0046 0.1279 3.6257 0.9237 0.4249 0 0 0 0 -0.0049 0.1648 18.0961 6.2407 1.44 -0.8056 5.3667 1.3235 0 -0.0143 0.0255 -0.0326 0 -0.0004 -2.8678 0.0509 -2.0666 -3.0321 0.0462 -1.773 -0.0605 0.0046 0.1165 -3.1331 -5.2115 7.3853 -0.1142 0.0015 -0.026 -47.5051 7.0723 60.8919 -0.1715 -0.0051 -0.1652 3.8902 -0.4844 -24.3179 -0.1429 -0.0834 -0.1536 -31.1972 3.1707 -9.8703 19.2418 -45.2802 26.8539 24.6616 -50.4328 24.1081 19.0096 -44.481 17.8465 9.8029 -29.8212 12.2046 5.3761 -17.7541 4.2305 1.9855 -3.9942 0.4545 13.3065 -7.4375 -0.9743 5.7428 -19.31 4.6872 3.8726 -14.1753 2.9892 18.7484 5.4456 -6.8158 5.1837 -17.9033 4.1581 -1.1912 6.3241 -2.3427 -31.4027 1.0536 -8.7514 -4.4109 -2.9625 -3.151 -29.4304 -18.121 2.4929 0.0605 0.0046 0.1171 -4.7291 6.8964 -10.835 0.1142 0.0015 -0.026 1.2153 27.9712 -21.5865 0.1709 -0.0051 -0.1646 -50.2688 34.049 -63.8347 0.1424 -0.0831 -0.153 13.5775 -19.8557 35.9849 -1.4187 0.0745 -2.337 -3.0492 -10.6924 1.827 -1.0199 -4.4604 0.9498 6.874 -7.8591 1.9407 1.0614 2.3994 -0.093 -1.778 -13.4454 3.345 15.2937 -7.8314 6.4988 0.5325 1.2948 0.5867 0.8043 3.1062 0.1001 22.8765 -12.392 9.8584 2.5035 9.2078 -1.4811 -1.2571 -6.5899 2.3577 -15.878 -10.0721 17.7656 -2.6137 1.9825 3.8333 -10.4833 5.8526 1.3007 -0.0734 0 0.0001 -24.7492 -4.9408 -0.8629 -0.0174 -0.0135 -0.3306 48.1041 -2.2468 -0.1173 -23.8118 6.6112 -2.5669 -0.0283 -0.1111 -0.0824 -0.0001 -0.0003 0.0001 0.0734 0 0.0001 -17.6659 0.1187 3.7283 0.0179 -0.0136 -0.3306 46.882 3.8091 -0.3475 -29.7168 -4.9132 3.3517 0.0285 -0.1111 -0.0823 0.0004 -0.0008 0.0002 
